# Made in Blockbench 5.0.7
mtllib materials.mtl

o pyramid
v 0.625 -1.3877787807814457e-17 0
v 0.5 -0.0625 0.0625
v 0.5 -0.0625 -0.0625
v 0.5 0.06250000000000003 0.0625
v 0.5 0.06250000000000003 -0.0625
vt 0.5 0.875
vt 0.5 1
vt 0.375 1
vt 0.375 0.875
vt 0.005445856017719089 0.6479430986273018
vt 0.11955414398228091 0.596910769483938
vt 0.11955414398228088 0.75
vt 0.005445856017719089 0.8979430986273018
vt 0.11955414398228091 0.846910769483938
vt 0.11955414398228088 1
vt 0.19294585601771908 0.8979430986273018
vt 0.3070541439822809 0.846910769483938
vt 0.30705414398228087 1
vt 0.19294585601771908 0.6479430986273018
vt 0.3070541439822809 0.596910769483938
vt 0.30705414398228087 0.75
vn -1 2.2204460492503126e-16 0
vn 0.4472135954999578 -0.8944271909999162 0
vn 0.4472135954999579 -9.930136612989089e-17 0.8944271909999161
vn 0.4472135954999579 -9.930136612989089e-17 -0.8944271909999161
vn 0.44721359549995826 0.894427190999916 0
usemtl m_cdbe550c-e881-0ebd-6796-2f95061e6d82
f 3/1/1 2/2/1 4/3/1 5/4/1
f 2/5/2 3/6/2 1/7/2
f 4/8/3 2/9/3 1/10/3
f 3/11/4 5/12/4 1/13/4
f 5/14/5 4/15/5 1/16/5
o mesh
v -0.2812500000000001 0.03124999999999986 0.03125
v -0.2812500000000001 0.03124999999999986 -0.03125
v 0.53125 0.03125000000000004 0.03125
v 0.53125 0.03125000000000004 -0.03125
v -0.2812500000000001 -0.03125000000000015 0.03125
v -0.2812500000000001 -0.03125000000000015 -0.03125
v 0.53125 -0.031249999999999972 0.03125
v 0.53125 -0.031249999999999972 -0.03125
vt 0.0625 1
vt 0 1
vt 0 0.1875
vt 0.0625 0.1875
vt 0.1875 0.1875
vt 0.1875 1
vt 0.125 1
vt 0.125 0.1875
vt 0.5 0.9375
vt 0.5625 0.9375
vt 0.5625 1
vt 0.5 1
vt 0.5625 0.8125
vt 0.5625 0.875
vt 0.5 0.875
vt 0.5 0.8125
vt 0.3125 0.1875
vt 0.3125 1
vt 0.25 1
vt 0.25 0.1875
vt 0.4375 1
vt 0.375 1
vt 0.375 0.1875
vt 0.4375 0.1875
vn -2.2204460492503126e-16 1 0
vn 2.2204460492503126e-16 -1 0
vn -1 -2.2204460492503126e-16 0
vn 1 2.2204460492503126e-16 0
vn 0 0 1
vn 0 0 -1
usemtl m_1b10e0a9-6493-1ac3-25af-70a89721e28b
f 7/17/6 6/18/6 8/19/6 9/20/6
f 12/21/7 10/22/7 11/23/7 13/24/7
f 10/25/8 6/26/8 7/27/8 11/28/8
f 9/29/9 8/30/9 12/31/9 13/32/9
f 8/33/10 6/34/10 10/35/10 12/36/10
f 11/37/11 7/38/11 9/39/11 13/40/11
o plane
v -0.28125 0.04607983355063275 0.042224387975978765
v -0.28125 -0.04607983355063275 -0.042224387975978765
v -0.34375 0.04607983355063275 0.042224387975978765
v -0.34375 -0.04607983355063275 -0.042224387975978765
vt 0.0625 0.875
vt 0.0625 1
vt 0 1
vt 0 0.875
vn 0 0.6755902076156604 -0.7372773368101241
usemtl m_0d397883-ff06-d561-e6c3-29764dcb29ef
f 14/41/12 15/42/12 17/43/12 16/44/12
o plane
v -0.28125 -0.04607983355063275 0.042224387975978765
v -0.28125 0.04607983355063275 -0.042224387975978765
v -0.34375 -0.04607983355063275 0.042224387975978765
v -0.34375 0.04607983355063275 -0.042224387975978765
vt 0.0625 0.875
vt 0.0625 1
vt 0 1
vt 0 0.875
vn 0 0.6755902076156604 0.7372773368101241
usemtl m_2d69e455-ae84-00ed-3ff7-48f314f59b59
f 18/45/13 19/46/13 21/47/13 20/48/13