# Made in Blockbench 5.0.7
mtllib SheepBodyWool.mtl

o mesh
v -0.12499999999999997 0.1875 0.09375000000000003
v 0.12500000000000003 0.1875 0.09374999999999997
v -0.12499999999999997 0.0625 0.09375000000000003
v 0.12500000000000003 0.0625 0.09374999999999997
v -0.12500000000000003 0.1875 -0.09374999999999997
v 0.12499999999999997 0.1875 -0.09375000000000003
v -0.12500000000000003 0.0625 -0.09374999999999997
v 0.12499999999999997 0.0625 -0.09375000000000003
vt 0.25 0.6875
vt 0 0.6875
vt 0 0.5625
vt 0.25 0.5625
vt 0.5625 0.5625
vt 0.5625 0.6875
vt 0.3125 0.6875
vt 0.3125 0.5625
vt 0 0.75
vt 0.1875 0.75
vt 0.1875 1
vt 0 1
vt 0.4375 0.75
vt 0.4375 1
vt 0.25 1
vt 0.25 0.75
vt 0.1875 0.375
vt 0.1875 0.5
vt 0 0.5
vt 0 0.375
vt 0.6875 1
vt 0.5 1
vt 0.5 0.875
vt 0.6875 0.875
vn 2.220446049250313e-16 0 1
vn -2.220446049250313e-16 0 -1
vn 0 1 0
vn 0 -1 0
vn -1 0 2.220446049250313e-16
vn 1 0 -2.220446049250313e-16
usemtl m_f2225a72-219c-f2b5-b1f9-8940a4b7769b
f 2/1/1 1/2/1 3/3/1 4/4/1
f 7/5/2 5/6/2 6/7/2 8/8/2
f 5/9/3 1/10/3 2/11/3 6/12/3
f 4/13/4 3/14/4 7/15/4 8/16/4
f 3/17/5 1/18/5 5/19/5 7/20/5
f 6/21/6 2/22/6 4/23/6 8/24/6