# Made in Blockbench 5.0.7
mtllib materials.mtl

o cube
v -0.0625 0.18750000000000006 0.12500000000000003
v 0.18750000000000003 0.18750000000000006 0.12500000000000008
v -0.0625 0.0625 0.12500000000000003
v 0.18750000000000003 0.0625 0.12500000000000008
v 0.18750000000000006 0.18750000000000006 -0.06249999999999998
v -0.062499999999999944 0.18750000000000006 -0.06250000000000003
v 0.18750000000000006 0.0625 -0.06249999999999998
v -0.062499999999999944 0.0625 -0.06250000000000003
vt 0.24999999999999997 0.75
vt 0.4375 0.75
vt 0.4375 0.625
vt 0.24999999999999997 0.625
vt 0 0.75
vt 0.24999999999999997 0.75
vt 0.24999999999999997 0.625
vt 0 0.625
vt 0.6875 0.75
vt 0.875 0.75
vt 0.875 0.625
vt 0.6875 0.625
vt 0.4375 0.75
vt 0.6875 0.75
vt 0.6875 0.625
vt 0.4375 0.625
vt 0.4375 0.75
vt 0.25 0.75
vt 0.25 1
vt 0.4375 1
vt 0.625 1
vt 0.4375 1
vt 0.4375 0.75
vt 0.625 0.75
vn 1 0 2.2204460492503126e-16
vn -2.2204460492503126e-16 0 1
vn -1 0 -2.2204460492503126e-16
vn 2.2204460492503126e-16 0 -1
vn 0 1 0
vn 0 -1 0
usemtl m_963d297b-dddc-95db-0929-1891be5b20f3
f 4/4/1 7/3/1 5/2/1 2/1/1
f 3/8/2 4/7/2 2/6/2 1/5/2
f 8/12/3 3/11/3 1/10/3 6/9/3
f 7/16/4 8/15/4 6/14/4 5/13/4
f 6/20/5 1/19/5 2/18/5 5/17/5
f 7/24/6 4/23/6 3/22/6 8/21/6